<?xml version="1.0" standalone="no"?>
<svg viewBox="0 0 200 200" xmlns="http://www.w3.org/2000/svg">
  <path fill="#285430" d="M25.9,-33.4C40,-31.3,62.1,-34.9,70.1,-28.7C78.1,-22.5,71.9,-6.5,68.7,9.3C65.5,25.1,65.4,40.8,55.4,42.6C45.5,44.4,25.7,32.3,13.9,26.1C2.1,19.9,-1.8,19.7,-14.8,26.7C-27.8,33.7,-49.8,48,-63.6,46.9C-77.4,45.8,-82.9,29.2,-74,17.5C-65.1,5.7,-41.7,-1.4,-31.4,-10.4C-21.1,-19.4,-23.8,-30.3,-20.7,-37.4C-17.7,-44.5,-8.8,-47.9,-1.5,-45.6C5.9,-43.3,11.8,-35.5,25.9,-33.4Z" transform="translate(100 100)" />
</svg>
